<svg width="291" height="315" viewBox="0 0 291 315" fill="none" xmlns="http://www.w3.org/2000/svg">
<path fill-rule="evenodd" clip-rule="evenodd" d="M96.8007 2.43697C95.1574 8.03595 94.5906 34.5621 95.9572 41.8486C98.1649 53.6123 103.454 63.2987 113.623 74.1985C119.941 80.9706 124.208 86.9435 127.238 93.2573C131.691 102.538 136.276 120.964 136.305 129.7C136.319 133.728 136.012 134.278 134.188 133.49C123.597 128.908 113.722 130.218 105.975 137.233C98.5025 144 96.4277 156.541 100.721 168.987C103.623 177.398 107.847 182.394 124.131 196.677C131.841 203.439 138.512 209.598 138.956 210.362C140.143 212.409 144.856 245.404 144.847 251.617C144.839 258.286 142.907 265.456 140.455 267.913C138.004 270.372 136.399 270.284 135.581 267.649C130.671 251.806 110.134 206.315 107.021 204.386C104.459 202.799 104.438 204.878 106.926 213.97C111.532 230.795 125.752 261.667 132.075 268.566C135.674 272.493 137.525 279.433 137.533 289.034C137.539 295.048 137.022 297.19 135.102 299.115C132.066 302.158 130.625 302.166 125.714 299.163C121.75 296.742 118.035 291.085 118.035 287.471C118.035 280.409 95.2172 228.645 89.1 221.826C77.052 208.398 98.0259 264.736 113.553 287.506C118.084 294.152 118.556 295.56 118.599 302.572C118.636 308.849 118.2 310.632 116.279 312.042C112.674 314.687 110.018 314.157 105.071 309.807C97.8869 303.49 92.4365 294.035 92.4268 287.87C92.3999 271.095 72.1819 217.255 65.9062 217.246C64.7883 217.244 64.5786 218.661 65.1406 222.437C66.3585 230.627 78.2613 265.947 84.6004 280.183C91.1236 294.832 90.8822 297.491 83.3582 293.893C70.4862 287.741 55.521 266.061 45.4955 239.043L41.5689 228.463L44.7543 225.265C47.8666 222.14 47.9373 221.71 47.8459 206.519C47.7398 188.998 45.003 177.478 36.8658 160.29C30.3877 146.605 26.6538 146.654 26.6318 160.423C26.6123 172.921 33.8377 212.318 38.2299 223.659C39.8232 227.773 36.1648 225.799 29.1309 218.748C23.7646 213.369 20.4622 208.376 15.1898 197.669C0.249002 167.328 -2.76695 134.545 7.54871 114.6C9.80762 110.231 15.2946 99.6884 19.7417 91.1714C30.0866 71.3599 31.9554 64.2017 31.1728 47.4072C30.8425 40.3431 29.9696 33.1874 29.2333 31.5072C28.1593 29.0572 28.0679 29.7818 28.7737 35.1731C29.2577 38.8695 29.621 47.3926 29.5795 54.1133C29.5137 64.9618 29.0638 67.4289 25.5615 76.1084C23.3928 81.485 17.5157 93.0911 12.5017 101.899C1.32908 121.527 -0.82499 129.671 0.244123 148.243C1.21937 165.17 5.77376 182.125 13.7074 198.361C20.7682 212.811 28.7518 222.998 35.548 226.231C39.1881 227.963 40.2292 229.68 44.7104 241.349C56.9827 273.305 76.7521 298.153 88.399 296.259C91.9635 295.68 92.573 296.079 95.3513 300.831C99.6631 308.208 107.505 315 111.711 315C117.437 315 119.57 312.462 120.196 304.902L120.758 298.102L124.578 300.437C129.159 303.236 132.461 303.399 135.889 300.992C139.423 298.511 140.261 292.809 138.685 282.002L137.34 272.785L141.415 268.456L145.489 264.126L149.525 268.457L153.561 272.788L152.158 282.7C150.973 291.06 151.043 293.307 152.601 297.042C155.058 302.938 159.5 304.139 165.674 300.579L170.161 297.989L170.728 304.844C171.358 312.464 173.478 315 179.218 315C183.432 315 191.268 308.205 195.6 300.792C198.309 296.16 199.067 295.625 202.069 296.227C214.843 298.787 235.532 271.39 249.013 234.057C250.612 229.631 252.094 227.794 255.296 226.27C266.207 221.081 281.004 195.988 286.898 172.682C293.76 145.546 292.081 125.723 281.343 107.073C264.024 76.9931 259.936 64.7944 261.141 46.7816C261.544 40.7329 262.163 34.1344 262.516 32.1182C263.143 28.5183 263.13 28.5073 261.756 31.5072C260.986 33.1874 260.086 40.3431 259.756 47.4072C258.963 64.4058 260.875 71.5334 271.848 92.4911C276.63 101.626 282.106 112.125 284.017 115.822C293.674 134.507 290.335 167.735 275.808 197.514C270.761 207.858 267.26 213.221 262.05 218.593C255.129 225.725 251.047 227.937 252.695 223.659C257.091 212.253 264.331 173.309 264.304 161.219C264.27 146.731 260.682 146.319 254.111 160.049C247.582 173.692 243.439 189.21 242.704 202.77C241.926 217.129 242.821 222.509 246.586 226.105L249.463 228.852L244.897 240.461C237.753 258.623 231.844 269.464 223.13 280.399C214.716 290.956 203.116 298.171 201.47 293.871C201.083 292.861 202.391 288.541 204.375 284.272C212.282 267.26 220.27 244.866 224.646 227.454C226.928 218.369 226.968 217.241 225.008 217.252C218.86 217.285 198.493 271.417 198.493 287.721C198.493 294.044 193.135 303.407 185.858 309.807C180.911 314.157 178.254 314.687 174.65 312.042C172.732 310.634 172.287 308.829 172.303 302.513C172.321 295.443 172.748 294.141 176.915 288.451C185.685 276.477 205.808 230.204 205.808 222.013C205.808 219.112 204.326 219.043 201.829 221.826C195.47 228.912 175.064 275.527 172.275 289.339C171.257 294.377 167.934 298.346 163.027 300.383C160.093 301.601 158.982 301.511 156.443 299.843C153.717 298.053 153.392 297.017 153.417 290.227C153.461 279.033 155.248 273.044 160.696 265.84C168.091 256.059 182.7 222.051 185.703 207.63C189.185 190.907 167.076 233.11 157.941 260.623C156.602 264.656 155.122 268.385 154.651 268.912C152.89 270.881 149.782 268.172 147.782 262.922C145.318 256.454 145.887 244.256 149.687 222.132C152.404 206.309 149.936 209.879 171.751 190.223C178.172 184.438 183.451 178.431 185.713 174.337C189 168.389 189.35 166.687 189.35 156.672C189.35 146.874 188.997 145.064 186.303 141.06C182.045 134.73 172.153 129.939 165.248 130.863C162.413 131.242 158.859 131.926 157.35 132.383C154.883 133.131 154.608 132.801 154.623 129.101C154.655 120.897 159.369 102.266 163.69 93.2573C166.721 86.9435 170.988 80.9706 177.306 74.1985C187.474 63.2987 192.764 53.6123 194.971 41.8486C196.572 33.3169 195.716 6.71869 193.695 2.18036C192.485 -0.539708 192.405 -0.339308 192.981 4.01328C197.43 37.7269 193.321 54.5043 176.087 72.9766C162.404 87.6412 155.557 103.414 153.772 124.376C153.107 132.194 152.439 134.21 149.228 138.1C147.158 140.609 144.916 142.667 144.245 142.674C141.092 142.71 137.811 134.578 137.111 124.987C135.566 103.816 128.738 87.8697 114.842 72.9766C98.8805 55.868 94.1164 39.9203 97.0641 13.4724C98.4891 0.69202 98.4001 -3.0166 96.8007 2.43697ZM28.308 155.609C26.6782 162.118 31.0095 190.486 37.2071 213.883C38.9431 220.437 40.7948 225.798 41.3215 225.798C41.8481 225.798 43.1208 224.956 44.1472 223.925C50.9398 217.118 46.7719 185.804 35.8869 161.864C31.3849 151.962 29.5917 150.481 28.308 155.609ZM256.895 157.592C246.564 177.887 240.721 208.606 244.903 220.63C246.456 225.097 249.24 226.525 250.721 223.614C255.763 213.709 264.569 163.386 262.621 155.609C261.506 151.158 259.883 151.722 256.895 157.592ZM107.127 208.266C106.858 214.3 128.721 264.9 131.596 264.9C133.163 264.9 132.422 262.493 125.902 246.405C120.19 232.309 107.229 205.981 107.127 208.266ZM175.093 224.152C162.376 250.775 154.878 271.096 160.282 264.289C165.727 257.43 184.703 211.823 183.552 208.361C183.345 207.74 179.539 214.845 175.093 224.152ZM146.134 212.895C145.333 213.863 143.831 214.329 142.796 213.931C141.394 213.392 141.089 213.799 141.597 215.532C141.972 216.809 142.63 220.604 143.059 223.965C143.976 231.135 144.878 234.735 145.58 234.031C146.026 233.585 147.156 227.667 149.197 215.105C149.878 210.909 148.563 209.96 146.134 212.895ZM66.8351 222.521C66.8351 230.386 88.7294 289.795 90.8456 287.673C91.8501 286.668 88.5733 271.755 84.9247 260.731C77.2812 237.637 66.8351 215.571 66.8351 222.521ZM220.693 224.816C213.017 237.418 197.366 284.95 200.018 287.609C201.122 288.716 209.412 269.669 215.306 252.487C224.331 226.179 226.429 215.402 220.693 224.816ZM87.5981 224.887C87.4847 231.12 107.073 276.32 113.674 285.062C115.35 287.281 115.523 287.306 115.558 285.327C115.663 279.451 95.5341 232.943 89.5291 225.187C87.8334 222.997 87.6322 222.966 87.5981 224.887ZM199.487 228.34C190.538 243.748 175.271 279.82 175.37 285.327C175.406 287.311 175.582 287.286 177.335 285.062C178.396 283.718 182.908 275.195 187.362 266.122C199.35 241.701 208.764 212.368 199.487 228.34Z" fill="white" fill-opacity="0.05"/>
</svg>
