<svg preserveAspectRatio="none" width="100%" height="100%" overflow="visible" style="display: block;" viewBox="0 0 16.7148 16.7148" fill="none" xmlns="http://www.w3.org/2000/svg">
<g id="SVG" clip-path="url(#clip0_0_112)">
<path id="Vector" d="M11.1431 14.6255V13.2326C11.1431 12.4937 10.8496 11.7851 10.3272 11.2627C9.80477 10.7403 9.09619 10.4468 8.35735 10.4468H4.17866C3.43982 10.4468 2.73125 10.7403 2.20881 11.2627C1.68637 11.7851 1.39287 12.4937 1.39287 13.2326V14.6255" stroke="#F4A583" stroke-width="1.3929" stroke-linecap="round" stroke-linejoin="round"/>
<path id="Vector_2" d="M6.26801 7.66097C7.80656 7.66097 9.0538 6.41373 9.0538 4.87518C9.0538 3.33662 7.80656 2.08938 6.26801 2.08938C4.72946 2.08938 3.48221 3.33662 3.48221 4.87518C3.48221 6.41373 4.72946 7.66097 6.26801 7.66097Z" stroke="#F4A583" stroke-width="1.3929" stroke-linecap="round" stroke-linejoin="round"/>
<path id="Vector_3" d="M15.3218 14.6255V13.2326C15.3214 12.6153 15.1159 12.0157 14.7378 11.5279C14.3596 11.0401 13.8301 10.6916 13.2325 10.5373" stroke="#F4A583" stroke-width="1.3929" stroke-linecap="round" stroke-linejoin="round"/>
<path id="Vector_4" d="M11.1431 2.17995C11.7424 2.33338 12.2735 2.68188 12.6528 3.17052C13.0321 3.65915 13.238 4.26013 13.238 4.87869C13.238 5.49725 13.0321 6.09823 12.6528 6.58686C12.2735 7.0755 11.7424 7.424 11.1431 7.57743" stroke="#F4A583" stroke-width="1.3929" stroke-linecap="round" stroke-linejoin="round"/>
</g>
<defs>
<clipPath id="clip0_0_112">
<rect width="16.7148" height="16.7148" fill="white"/>
</clipPath>
</defs>
</svg>
