<svg preserveAspectRatio="none" width="100%" height="100%" overflow="visible" style="display: block;" viewBox="0 0 16.7148 16.7148" fill="none" xmlns="http://www.w3.org/2000/svg">
<g id="SVG" clip-path="url(#clip0_0_84)">
<path id="Vector" d="M4.17859 6.26807H3.13392C2.67215 6.26807 2.22928 6.08463 1.90276 5.75811C1.57624 5.43159 1.3928 4.98873 1.3928 4.52695C1.3928 4.06518 1.57624 3.62232 1.90276 3.29579C2.22928 2.96927 2.67215 2.78583 3.13392 2.78583H4.17859" stroke="#F4A583" stroke-width="1.3929" stroke-linecap="round" stroke-linejoin="round"/>
<path id="Vector_2" d="M12.536 6.26807H13.5806C14.0424 6.26807 14.4853 6.08463 14.8118 5.75811C15.1383 5.43159 15.3218 4.98873 15.3218 4.52695C15.3218 4.06518 15.1383 3.62232 14.8118 3.29579C14.4853 2.96927 14.0424 2.78583 13.5806 2.78583H12.536" stroke="#F4A583" stroke-width="1.3929" stroke-linecap="round" stroke-linejoin="round"/>
<path id="Vector_3" d="M2.7857 15.3219H13.9289" stroke="#F4A583" stroke-width="1.3929" stroke-linecap="round" stroke-linejoin="round"/>
<path id="Vector_4" d="M6.96439 10.21V11.8397C6.96439 12.2227 6.63705 12.5222 6.28883 12.6824C5.46702 13.0584 4.87504 14.0961 4.87504 15.3219" stroke="#F4A583" stroke-width="1.3929" stroke-linecap="round" stroke-linejoin="round"/>
<path id="Vector_5" d="M9.75018 10.21V11.8397C9.75018 12.2227 10.0775 12.5222 10.4257 12.6824C11.2475 13.0584 11.8395 14.0961 11.8395 15.3219" stroke="#F4A583" stroke-width="1.3929" stroke-linecap="round" stroke-linejoin="round"/>
<path id="Vector_6" d="M12.536 1.39293H4.17859V6.26807C4.17859 7.37633 4.61885 8.4392 5.4025 9.22285C6.18616 10.0065 7.24902 10.4468 8.35728 10.4468C9.46554 10.4468 10.5284 10.0065 11.3121 9.22285C12.0957 8.4392 12.536 7.37633 12.536 6.26807V1.39293Z" stroke="#F4A583" stroke-width="1.3929" stroke-linecap="round" stroke-linejoin="round"/>
</g>
<defs>
<clipPath id="clip0_0_84">
<rect width="16.7148" height="16.7148" fill="white"/>
</clipPath>
</defs>
</svg>
