<svg width="14.4" height="14.4" viewBox="0 0 14.4 14.4" fill="none" xmlns="http://www.w3.org/2000/svg">
<path d="M8.46333 3.33177C8.62989 3.415 8.81353 3.45833 8.99973 3.45833C9.18592 3.45833 9.36957 3.415 9.53613 3.33177L11.7315 2.23377C11.8231 2.18803 11.9248 2.16646 12.027 2.17111C12.1293 2.17577 12.2286 2.20649 12.3156 2.26037C12.4026 2.31425 12.4744 2.38948 12.5241 2.47892C12.5739 2.56836 12.5999 2.66904 12.5997 2.77137V10.4298C12.5997 10.5412 12.5686 10.6503 12.51 10.7451C12.4514 10.8398 12.3676 10.9164 12.2679 10.9662L9.53613 12.3324C9.36957 12.4156 9.18592 12.4589 8.99973 12.4589C8.81353 12.4589 8.62989 12.4156 8.46333 12.3324L5.93613 11.0688C5.76957 10.9855 5.58592 10.9422 5.39973 10.9422C5.21353 10.9422 5.02989 10.9855 4.86333 11.0688L2.66793 12.1668C2.57634 12.2125 2.47456 12.2341 2.37228 12.2294C2.27 12.2247 2.17062 12.194 2.0836 12.14C1.99657 12.0861 1.9248 12.0108 1.87512 11.9212C1.82543 11.8317 1.79948 11.731 1.79973 11.6286V3.97077C1.79979 3.85937 1.83086 3.75019 1.88946 3.65546C1.94806 3.56072 2.03188 3.48417 2.13153 3.43437L4.86333 2.06817C5.02989 1.98494 5.21353 1.94161 5.39973 1.94161C5.58592 1.94161 5.76957 1.98494 5.93613 2.06817L8.46333 3.33177Z" stroke="#262222" stroke-width="1.2" stroke-linecap="round" stroke-linejoin="round"/>
<path d="M9.00011 3.45845V12.4584" stroke="#262222" stroke-width="1.2" stroke-linecap="round" stroke-linejoin="round"/>
<path d="M5.39992 1.94161V10.9416" stroke="#262222" stroke-width="1.2" stroke-linecap="round" stroke-linejoin="round"/>
</svg>
