<svg width="17" height="17" viewBox="0 0 17 17" fill="none" xmlns="http://www.w3.org/2000/svg">
<path d="M7.4502 0.121094C11.498 0.121094 14.7793 3.40237 14.7793 7.4502C14.7793 8.90343 14.3433 10.2509 13.6123 11.3916L13.5596 11.4736L16.4463 14.3604C17.0225 14.9366 17.0225 15.8701 16.4463 16.4463C15.8701 17.0225 14.9366 17.0224 14.3604 16.4463L11.542 13.6289L11.4736 13.5596L11.3906 13.6123C10.2505 14.3437 8.90387 14.7793 7.4502 14.7793C3.40291 14.7793 0.121094 11.4979 0.121094 7.4502C0.121104 3.40246 3.40292 0.121122 7.4502 0.121094ZM7.4502 2.00684C4.44432 2.00686 2.00684 4.4438 2.00684 7.4502C2.00684 10.4566 4.44436 12.8935 7.4502 12.8936C10.4566 12.8936 12.8935 10.4566 12.8936 7.4502C12.8936 4.44379 10.4566 2.00684 7.4502 2.00684Z" fill="#262222" fill-opacity="0.3" stroke="#F6F5F4" stroke-width="0.242857"/>
</svg>
