<svg width="17.41" height="17.41" viewBox="0 0 17.4107 17.4107" fill="none" xmlns="http://www.w3.org/2000/svg">
<g clip-path="url(#clip0)">
<path d="M3.8201 7.08399C4.15952 6.05708 4.81459 5.1636 5.69184 4.531C6.56908 3.8984 7.62371 3.559 8.70526 3.56122C9.93126 3.56122 11.0397 3.99649 11.9103 4.70888L14.4435 2.17634C12.8998 0.830641 10.9215 0 8.70526 0C5.27389 0 2.31988 1.95726 0.899453 4.82422L3.8201 7.08399Z" fill="white"/>
<path d="M11.6361 13.0675C10.8454 13.5775 9.84136 13.8495 8.70531 13.8495C7.62807 13.8517 6.57743 13.515 5.70213 12.8871C4.82683 12.2592 4.17123 11.3718 3.82813 10.3507L0.897327 12.5756C1.61642 14.0311 2.72927 15.2557 4.10948 16.1104C5.48968 16.9651 7.08191 17.4156 8.70531 17.4107C10.833 17.4107 12.8657 16.6541 14.3885 15.2344L11.6368 13.0675H11.6361Z" fill="white"/>
<path d="M14.3885 15.2344C15.9808 13.7487 17.0146 11.5375 17.0146 8.70536C17.0146 8.19029 16.9355 7.63677 16.8173 7.12243H8.70532V10.4863H13.3743C13.1443 11.6173 12.5255 12.4929 11.6369 13.0675L14.3885 15.2344Z" fill="white"/>
<path d="M3.82823 10.3507C3.65075 9.82029 3.56059 9.26462 3.56127 8.70535C3.56127 8.13805 3.65195 7.59324 3.82025 7.08398L0.899603 4.82421C0.302109 6.0304 -0.00589644 7.3593 0.00005 8.70535C0.00005 10.0982 0.322873 11.4113 0.897427 12.5756L3.82823 10.3507Z" fill="white"/>
</g>
<defs>
<clipPath id="clip0">
<rect width="17.4107" height="17.4107" fill="white"/>
</clipPath>
</defs>
</svg>
