<svg width="15.48" height="19.06" viewBox="0 0 15.4762 19.0639" fill="none" xmlns="http://www.w3.org/2000/svg">
<path d="M3.83659 18.6989C3.46091 18.4489 3.12795 18.1401 2.8505 17.7842C2.54532 17.4169 2.26255 17.0315 2.00375 16.6302C1.39642 15.7405 0.920137 14.768 0.589512 13.7428C0.192336 12.5518 0 11.4103 0 10.2938C0 9.04693 0.269747 7.95842 0.797331 7.04378C1.18842 6.32889 1.76342 5.73147 2.46285 5.31335C3.14068 4.89234 3.91951 4.66194 4.71729 4.64643C4.99656 4.64643 5.29728 4.68692 5.61645 4.76433C5.8457 4.82924 6.12497 4.93166 6.46618 5.05909C6.90027 5.22641 7.13905 5.32884 7.22004 5.35384C7.4743 5.44674 7.68808 5.48723 7.856 5.48723C7.98343 5.48723 8.16326 5.44674 8.3675 5.38481C8.48243 5.34432 8.69918 5.27286 9.00942 5.14007C9.31668 5.02812 9.55844 4.93225 9.75077 4.8608C10.0455 4.77386 10.3308 4.69347 10.585 4.65298C10.8865 4.60546 11.1924 4.59287 11.4967 4.61547C12.024 4.64993 12.5435 4.76169 13.0383 4.94714C13.8476 5.27286 14.502 5.78139 14.9891 6.50429C14.7832 6.63118 14.59 6.77754 14.4121 6.94136C14.0248 7.28469 13.6949 7.68775 13.4349 8.13527C13.0951 8.74685 12.9189 9.43581 12.9234 10.1354C12.9359 10.9947 13.1563 11.7515 13.5903 12.406C13.9095 12.891 14.3243 13.3057 14.8093 13.6249C15.0576 13.7922 15.2713 13.9071 15.4762 13.9845C15.3803 14.2823 15.2779 14.5705 15.157 14.8563C14.8829 15.4973 14.5506 16.1118 14.1644 16.6921C13.8202 17.1917 13.5504 17.5639 13.3456 17.8116C13.0264 18.1897 12.7192 18.4785 12.4089 18.6798C12.0677 18.9061 11.6646 19.027 11.2549 19.027C10.9775 19.0376 10.7001 19.004 10.4332 18.9275C10.2039 18.8501 9.97705 18.7661 9.75375 18.6703C9.5216 18.5636 9.28223 18.4735 9.0374 18.4005C8.43223 18.2451 7.79772 18.2441 7.19205 18.3976C6.94374 18.469 6.70496 18.5524 6.46915 18.6548C6.13748 18.7941 5.91716 18.8876 5.78973 18.9275C5.53546 19.0019 5.27167 19.0484 5.0049 19.0639C4.59224 19.0639 4.20757 18.946 3.82647 18.7072L3.83659 18.6989ZM9.27916 4.04143C8.73967 4.31118 8.22459 4.42611 7.71309 4.38859C7.6327 3.87351 7.71308 3.34653 7.92686 2.76952C8.10885 2.28068 8.37777 1.82879 8.72062 1.43567C9.08266 1.02183 9.52199 0.682629 10.014 0.437073C10.538 0.167326 11.0376 0.0214368 11.5151 0C11.5771 0.539493 11.5151 1.07005 11.3169 1.64349C11.1333 2.1504 10.8649 2.62239 10.5231 3.03926C10.1742 3.45367 9.746 3.79419 9.26368 4.04084L9.27916 4.04143Z" fill="white"/>
</svg>
