<svg width="14.5" height="14.5" viewBox="0 0 14.5002 14.5002" fill="none" xmlns="http://www.w3.org/2000/svg">
<path d="M10.2698 1.2084H4.22806C2.55967 1.2084 1.20718 2.56089 1.20718 4.22928V10.271C1.20718 11.9394 2.55967 13.2919 4.22806 13.2919H10.2698C11.9382 13.2919 13.2907 11.9394 13.2907 10.271V4.22928C13.2907 2.56089 11.9382 1.2084 10.2698 1.2084Z" stroke="#262222" stroke-width="1.20835" stroke-linecap="round" stroke-linejoin="round"/>
<path d="M9.66578 6.86941C9.74034 7.37223 9.65445 7.88576 9.42034 8.33696C9.18622 8.78816 8.81579 9.15404 8.36174 9.38258C7.90769 9.61112 7.39314 9.69066 6.89127 9.60991C6.38941 9.52915 5.92579 9.2922 5.56635 8.93276C5.20691 8.57333 4.96996 8.1097 4.88921 7.60784C4.80845 7.10597 4.888 6.59142 5.11653 6.13737C5.34507 5.68332 5.71096 5.31289 6.16215 5.07878C6.61335 4.84466 7.12688 4.75877 7.62971 4.83333C8.1426 4.90939 8.61744 5.14839 8.98408 5.51503C9.35072 5.88167 9.58972 6.35651 9.66578 6.86941Z" stroke="#262222" stroke-width="1.20835" stroke-linecap="round" stroke-linejoin="round"/>
<path d="M10.5724 3.92712H10.579" stroke="#262222" stroke-width="1.20835" stroke-linecap="round" stroke-linejoin="round"/>
</svg>
